# xmcd
#
# Track frame offsets: 
#        150
#        18983
#        36291
#        49760
#        66636
#        79015
#        102940
#        120375
#        139030
#        156259
#        170888
#        185219
#        201781
#        223431
#        238881
#        255960
#        278340
#        295392
#        312428
#        329738
#
# Disc length: 4627 seconds
#
# Revision: 0
# Processed by: cddbd v1.5.1PL0 Copyright (c) Steve Scherf et al.
# Submitted via: ExactAudioCopy v0.95a3
#
DISCID=3b121114
DTITLE=Various Artist - Полный Кайф
DYEAR=2000
DGENRE=Pop
TTITLE0=Иванушки International - Беги
TTITLE1=Алла Горбачёва - 5 Часов
TTITLE2=Татьяна Овсиенко - Не Вернусь
TTITLE3=Стрелки - Ты Ко Мне Никогда Не Вернёшься
TTITLE4=Ахи-Вздохи - Чикагский Бык
TTITLE5=Валерия - Не Обижай Меня
TTITLE6=Таня Буланова - Сердце Из Гранита
TTITLE7=Владимир Кузьмин - Пороги (Ремикс Dj Грув)
TTITLE8=Демо - Выше Неба
TTITLE9=Игорёк - Подождём
TTITLE10=Лицей - Планета №5
TTITLE11=Земфира - До Свидания...
TTITLE12=Оскар - Между Мной И Тобой
TTITLE13=Hi-Fi - Глупые Люди
TTITLE14=А-Мега - Десант
TTITLE15=Найк Борзов - Лошадка (Revers Mix)
TTITLE16=Вирус - Не Верь
TTITLE17=Reflex - Встречай Новый День
TTITLE18=Кристина Орбакайте - Никогда
TTITLE19=Руки Вверх! - Киска-Любовь (Радио Микс)
EXTD=
EXTT0=
EXTT1=
EXTT2=
EXTT3=
EXTT4=
EXTT5=
EXTT6=
EXTT7=
EXTT8=
EXTT9=
EXTT10=
EXTT11=
EXTT12=
EXTT13=
EXTT14=
EXTT15=
EXTT16=
EXTT17=
EXTT18=
EXTT19=
PLAYORDER=
